<?xml version="1.0" encoding="UTF-8"?>
<svg version="1.1" xmlns="http://www.w3.org/2000/svg" width="1802" height="1802">
<path d="M0 0 C594.66 0 1189.32 0 1802 0 C1802 594.66 1802 1189.32 1802 1802 C1207.34 1802 612.68 1802 0 1802 C0 1207.34 0 612.68 0 0 Z " fill="#FEFEFE" transform="translate(0,0)"/>
<path d="M0 0 C594.66 0 1189.32 0 1802 0 C1802 594.66 1802 1189.32 1802 1802 C1207.34 1802 612.68 1802 0 1802 C0 1207.34 0 612.68 0 0 Z M71.5703125 79.71875 C66.73802525 86.73878919 63.87659335 94.31369335 63.87343816 102.84781853 C63.87066285 103.80477123 63.86788753 104.76172393 63.86502812 105.7476752 C63.86706445 106.79379247 63.86910079 107.83990974 63.87119883 108.91772753 C63.86942382 110.03926633 63.86764881 111.16080512 63.86582002 112.31632994 C63.86105449 116.109049 63.8634592 119.90173045 63.86577892 123.69445133 C63.86438157 126.43897659 63.86147953 129.1834998 63.85865095 131.9280239 C63.85327114 137.93189415 63.85163467 143.93575656 63.8524017 149.93962903 C63.8535357 158.92776744 63.84896056 167.91589671 63.84327086 176.90403307 C63.83375181 192.22075204 63.8290505 207.53746919 63.82696152 222.85419083 C63.82483435 238.38264159 63.82057768 253.91108954 63.8137188 269.43953896 C63.81328818 270.41926152 63.81285757 271.39898409 63.8124139 272.40839522 C63.81065559 276.39847342 63.80888595 280.38855162 63.80710088 284.37862981 C63.78549231 332.77346023 63.77462101 381.16829122 63.76562465 429.56312537 C63.76269146 445.25393503 63.75932168 460.94474456 63.75565743 476.63555408 C63.75539914 477.74221398 63.75514085 478.84887389 63.75487473 479.98906895 C63.75382853 484.46606116 63.75278011 488.94305336 63.75172891 493.42004557 C63.73376405 569.99842278 63.71838404 646.5768002 63.71096988 723.15517921 C63.71038591 729.17129018 63.70978864 735.18740116 63.70919226 741.20351213 C63.70907414 742.39693079 63.70895602 743.59034946 63.70883433 744.81993232 C63.70763692 756.91116442 63.70642816 769.00239651 63.70520179 781.0936286 C63.70495656 783.51797679 63.7047127 785.94232498 63.70447022 788.36667317 C63.69667909 866.24184441 63.67429268 944.11700058 63.6417938 1021.99216523 C63.61845304 1077.9411082 63.59689878 1133.89004818 63.58978748 1189.83899593 C63.58964046 1190.98923923 63.58949344 1192.13948252 63.58934197 1193.32458167 C63.58615737 1218.5734706 63.58410632 1243.82235951 63.58311442 1269.07124862 C63.58269967 1279.22999865 63.58214477 1289.38874868 63.58155251 1299.5474987 C63.58149184 1300.65932676 63.58143117 1301.77115481 63.58136866 1302.91667462 C63.57935149 1338.75216184 63.56510441 1374.58763129 63.5446075 1410.4231123 C63.52403929 1446.51117023 63.51612583 1482.5992076 63.52568527 1518.6872708 C63.52700377 1523.67173171 63.5281818 1528.65619265 63.52927589 1533.64065361 C63.52949574 1534.61776487 63.52971559 1535.59487613 63.5299421 1536.60159683 C63.53305903 1552.08675198 63.52271982 1567.57186788 63.50680034 1583.05701393 C63.49143275 1598.27585217 63.49028079 1613.49463602 63.50434858 1628.71347613 C63.51217134 1637.64070709 63.50901019 1646.56777206 63.48971142 1655.49498652 C63.47798888 1661.42186342 63.48074294 1667.34861887 63.49532606 1673.27548916 C63.50318935 1676.63672288 63.5026412 1679.99736659 63.48870702 1683.35861984 C63.47469033 1686.97432179 63.48531989 1690.58915656 63.50205535 1694.20482832 C63.49213797 1695.23421039 63.4822206 1696.26359247 63.4720027 1697.32416794 C63.56373809 1706.71403382 65.86161033 1715.96191586 71.5 1723.625 C72.0671875 1724.42164063 72.634375 1725.21828125 73.21875 1726.0390625 C75.03840316 1728.04227717 76.5138732 1728.98592196 79 1730 C79 1730.66 79 1731.32 79 1732 C80.93625098 1732.98163422 82.87404539 1733.96022454 84.8125 1734.9375 C85.89144531 1735.48277344 86.97039062 1736.02804687 88.08203125 1736.58984375 C91.80526776 1738.38915885 94.53014019 1739.12507513 98.61689096 1739.12703451 C99.57325802 1739.12991543 100.52962507 1739.13279635 101.51497294 1739.13576457 C102.57072273 1739.13384637 103.62647253 1739.13192816 104.71421474 1739.12995183 C106.39998016 1739.1328007 106.39998016 1739.1328007 108.11980145 1739.13570711 C111.93243799 1739.14090589 115.74503811 1739.13890911 119.55767727 1739.13701439 C122.31180963 1739.13871418 125.06593978 1739.14191872 127.82007083 1739.14505023 C133.85123087 1739.15109681 139.88238351 1739.15338603 145.91354644 1739.15327708 C154.94257083 1739.15312684 163.97158553 1739.15866813 173.00060716 1739.16532399 C188.38620665 1739.17648633 203.77180482 1739.18280384 219.15740776 1739.18649673 C234.75765135 1739.19024796 250.35789192 1739.19611705 265.9581337 1739.20457458 C266.94206847 1739.20510568 267.92600323 1739.20563677 268.93975421 1739.20618396 C272.94693406 1739.20835061 276.9541139 1739.21052723 280.96129374 1739.2127179 C329.57597885 1739.23924033 378.19066556 1739.25478849 426.80535588 1739.26788078 C442.56756504 1739.27212923 458.32977407 1739.27669683 474.09198308 1739.2814641 C556.63214126 1739.30637068 639.17229978 1739.32843725 721.71246091 1739.34065448 C727.75614122 1739.34155186 733.79982153 1739.34246656 739.84350184 1739.34338222 C741.04239371 1739.34356383 742.24128558 1739.34374544 743.47650751 1739.34393256 C755.62326028 1739.34577527 767.77001304 1739.34764112 779.91676581 1739.34953065 C782.35225268 1739.3499087 784.78773956 1739.35028499 787.22322644 1739.35065953 C865.45143728 1739.36269102 943.67962589 1739.39238137 1021.90782626 1739.43407464 C1078.10671214 1739.464018 1134.30559346 1739.49164955 1190.50448704 1739.50135231 C1191.65987611 1739.50155287 1192.81526517 1739.50175342 1194.00566603 1739.50196006 C1219.36759491 1739.50631035 1244.72952376 1739.50925628 1270.09145295 1739.51088657 C1280.29575118 1739.51156294 1290.5000494 1739.51241846 1300.70434761 1739.51332474 C1301.82116513 1739.51341883 1302.93798264 1739.51351293 1304.08864312 1739.51360988 C1340.08602923 1739.51672394 1376.08338708 1739.53524387 1412.080763 1739.56167471 C1448.33308994 1739.58820505 1484.58538531 1739.59897413 1520.83772133 1739.58793872 C1525.84489977 1739.58641713 1530.85207823 1739.58507172 1535.85925674 1739.58383179 C1536.84082288 1739.58358206 1537.82238901 1739.58333233 1538.83369956 1739.58307503 C1554.38965069 1739.5795771 1569.94554032 1739.59290405 1585.50147668 1739.61320952 C1600.78986609 1739.63281865 1616.07817136 1739.63466178 1631.36656465 1739.61748323 C1640.33472507 1739.60794333 1649.30262685 1739.61213727 1658.27076067 1739.63650558 C1664.22476055 1739.65132141 1670.17857199 1739.6480423 1676.13256246 1739.62997501 C1679.50932048 1739.6202373 1682.88516039 1739.62101647 1686.26194805 1739.63852822 C1689.89431099 1739.65615017 1693.52532575 1739.64296502 1697.15764278 1739.62214315 C1698.1918759 1739.6345694 1699.22610901 1739.64699565 1700.29168253 1739.65979846 C1710.90175355 1739.53108788 1721.37020802 1735.53113088 1729 1728 C1737.02113484 1718.52341731 1739.46018722 1709.78452461 1739.37719816 1697.53829294 C1739.38152934 1696.40653235 1739.38586052 1695.27477176 1739.39032295 1694.10871539 C1739.40120459 1690.30517185 1739.39068276 1686.50198981 1739.38031673 1682.69844913 C1739.38208202 1679.93671274 1739.38837102 1677.1749907 1739.3944377 1674.41326085 C1739.4052729 1668.38408077 1739.40494376 1662.35498078 1739.39736467 1656.32579691 C1739.38607273 1647.29987665 1739.39206784 1638.27402413 1739.40142866 1629.2481046 C1739.41687054 1613.86554294 1739.41803217 1598.48300956 1739.41144943 1583.10044289 C1739.4048254 1567.50916623 1739.40469203 1551.91790979 1739.41249657 1536.32663345 C1739.41298457 1535.34232557 1739.41347256 1534.35801769 1739.41397535 1533.3438823 C1739.4159835 1529.33502976 1739.4180366 1525.32617725 1739.42014709 1521.31732477 C1739.44155751 1480.605653 1739.44359986 1439.89399618 1739.43809005 1399.1823202 C1739.43733436 1393.5553088 1739.43660674 1387.92829739 1739.43590808 1382.30128598 C1739.43576899 1381.18366272 1739.4356299 1380.06603945 1739.43548659 1378.91454882 C1739.43253563 1354.15789819 1739.43554577 1329.40124936 1739.43980437 1304.64459905 C1739.44038652 1301.25744081 1739.44095537 1297.87028256 1739.44152 1294.48312431 C1739.44303492 1285.40357864 1739.44456183 1276.32403297 1739.44611301 1267.24448731 C1739.45687153 1203.85278539 1739.46156966 1140.46108513 1739.45364285 1077.06938267 C1739.45349454 1075.8741701 1739.45334623 1074.67895752 1739.45319343 1073.44752639 C1739.45153439 1060.11925553 1739.44978481 1046.79098469 1739.44800042 1033.46271385 C1739.4478394 1032.25933798 1739.44767837 1031.05596211 1739.44751247 1029.8161203 C1739.446535 1022.51628492 1739.446535 1022.51628492 1739.44555128 1015.21644953 C1739.43515827 938.23177477 1739.44292843 861.24712287 1739.46655273 784.26245117 C1739.47249597 764.86315445 1739.47838746 745.46385772 1739.48396206 726.06456089 C1739.48430583 724.8701265 1739.4846496 723.6756921 1739.48500379 722.44506272 C1739.49552831 685.64314612 1739.50112505 648.84123143 1739.5015192 612.03931332 C1739.50153199 610.88421989 1739.50154477 609.72912647 1739.50155794 608.53903022 C1739.50178621 583.18443845 1739.50078031 557.82984685 1739.49864888 532.47525517 C1739.49789409 523.40343512 1739.49721589 514.33161506 1739.49656873 505.259795 C1739.49640604 503.00289556 1739.49623838 500.74599612 1739.49606572 498.48909668 C1739.49334253 462.50108904 1739.50190729 426.51309526 1739.51591982 390.52509061 C1739.53031482 353.2817787 1739.52989358 316.03849318 1739.5125451 278.79518218 C1739.51074086 274.79837734 1739.50900068 270.80157249 1739.50731087 266.80476761 C1739.50668012 265.33341099 1739.50668012 265.33341099 1739.50603662 263.83233 C1739.49973134 248.28138702 1739.50685435 232.73048024 1739.51952007 217.17954236 C1739.53168294 201.8996166 1739.52962743 186.61974812 1739.51229975 171.33982673 C1739.50255964 162.37458745 1739.50380812 153.40951062 1739.52112973 144.44428187 C1739.53153577 138.49481488 1739.52751125 132.54547209 1739.51161324 126.59601749 C1739.5029999 123.22031441 1739.50284031 119.84519722 1739.51599697 116.46946949 C1739.52916731 112.84169475 1739.51780593 109.2147935 1739.50024599 105.58705622 C1739.50992709 104.54851416 1739.5196082 103.5099721 1739.52958267 102.43995907 C1739.42089162 91.56734511 1735.55588861 82.80243392 1728 75 C1718.16135473 66.37200259 1707.07623706 63.37902666 1694.2053203 63.49860334 C1693.07401624 63.49299408 1691.94271218 63.48738481 1690.77712619 63.48160556 C1686.9931298 63.46770664 1683.20978973 63.48222166 1679.42580318 63.49663544 C1676.67110064 63.49468507 1673.91642271 63.48670079 1671.16173097 63.47901797 C1665.15729161 63.46547171 1659.15299756 63.46675186 1653.14855509 63.47775215 C1644.15972192 63.49414547 1635.17100629 63.48741119 1626.18217041 63.47622158 C1610.86160989 63.45782794 1595.54110249 63.4584185 1580.22053719 63.46934509 C1564.69501799 63.48035042 1549.16953375 63.48267123 1533.64401245 63.47439575 C1532.66337862 63.47387906 1531.68274479 63.47336237 1530.67239478 63.47283002 C1526.67842374 63.47069694 1522.68445275 63.46850211 1518.69048179 63.46622892 C1481.48938696 63.44507063 1444.28831557 63.44363717 1407.08721733 63.45481873 C1405.98484964 63.45514991 1404.88248194 63.45548109 1403.74670917 63.45582231 C1402.09051626 63.45631988 1402.09051626 63.45631988 1400.40086491 63.45682751 C1366.77688972 63.46691609 1333.15292422 63.46952774 1299.52894783 63.46473694 C1297.27822993 63.46442702 1295.02751203 63.4641184 1292.77679413 63.46381106 C1283.73233533 63.46256922 1274.68787654 63.46129455 1265.64341775 63.459972 C1240.35976477 63.4563038 1215.07611175 63.45402152 1189.79245853 63.45282745 C1188.06535926 63.45274558 1188.06535926 63.45274558 1186.30336908 63.45266205 C1149.60948099 63.45102471 1112.91559628 63.45553372 1076.22170925 63.46422577 C1075.03140437 63.46450677 1073.84109948 63.46478776 1072.61472475 63.46507727 C1053.28435349 63.46965719 1033.9539823 63.47453498 1014.62361112 63.47943797 C937.95227111 63.49886429 861.28095903 63.49796143 784.60961914 63.47851562 C765.28786185 63.47363096 745.96610456 63.4687868 726.64434719 63.46422577 C724.85983992 63.46380308 724.85983992 63.46380308 723.03928199 63.46337185 C686.38310366 63.45474869 649.72692765 63.45108971 613.07074833 63.45282745 C611.34493394 63.45290896 611.34493394 63.45290896 609.58425461 63.45299211 C584.32941169 63.45424196 559.07456901 63.45677638 533.81972632 63.46046947 C524.78361841 63.46178606 515.74751049 63.46303838 506.71140256 63.46427231 C504.46340565 63.46458186 502.21540873 63.46489678 499.96741182 63.46521709 C466.35068593 63.4699938 432.73397094 63.46592117 399.11724641 63.45582231 C397.46357068 63.45532553 397.46357068 63.45532553 395.77648735 63.45481873 C394.12585536 63.45432263 394.12585536 63.45432263 392.44187728 63.45381652 C355.35029503 63.44279062 318.25874092 63.44682785 281.16716271 63.4679417 C277.186304 63.47015117 273.20544526 63.47229798 269.22458649 63.47439575 C267.75910622 63.47517699 267.75910622 63.47517699 266.2640203 63.47597402 C250.77815324 63.48387147 235.29232109 63.47836224 219.80645717 63.46731973 C204.58881704 63.45675285 189.37123596 63.46042675 174.15360334 63.47937608 C165.22612444 63.49006806 156.29880724 63.48979755 147.37133598 63.47344969 C141.44562649 63.46368924 135.52004318 63.46837886 129.59434899 63.48491711 C126.23298589 63.49389246 122.87220923 63.4944429 119.51081921 63.48165104 C115.89668389 63.4688687 112.28342517 63.48066158 108.66933054 63.49860334 C107.63760728 63.48904038 106.60588402 63.47947741 105.54289643 63.46962465 C92.10481877 63.60562932 80.15150887 69.34148927 71.5703125 79.71875 Z " fill="#000000" transform="translate(0,0)"/>
<path d="M0 0 C3.53980025 0.0023021 7.07959597 -0.00124942 10.61939526 -0.00397992 C17.53001908 -0.00838991 24.44063194 -0.00748145 31.35125616 -0.00456728 C36.99294134 -0.00228919 42.6346235 -0.00201104 48.27630901 -0.0030911 C49.08594974 -0.00324433 49.89559046 -0.00339756 50.72976576 -0.00355544 C52.37599144 -0.00387526 54.02221713 -0.00419947 55.66844282 -0.00452803 C71.05939462 -0.00737022 86.45034045 -0.00411832 101.84129128 0.00127234 C114.92849229 0.0057154 128.0156844 0.00498274 141.10288525 0.00035357 C156.40332489 -0.00505616 171.70375927 -0.00707091 187.00419974 -0.00403416 C188.65221484 -0.00371573 190.30022995 -0.00340136 191.94824505 -0.0030911 C193.16351433 -0.00285968 193.16351433 -0.00285968 194.40333451 -0.0026236 C199.99663957 -0.0017756 205.58994114 -0.00320337 211.18324566 -0.00557065 C258.50559128 -0.0238259 305.83595613 0.07139334 353.11069775 2.44322467 C354.40917645 2.50730517 355.70765514 2.57138568 357.04548168 2.63740802 C411.39514171 5.34944155 411.39514171 5.34944155 435.98569775 14.13072467 C436.84082958 14.43526568 437.69596142 14.7398067 438.57700634 15.05357623 C453.60864637 20.52114409 467.15584457 27.50359703 479.98569775 37.13072467 C480.54853466 37.55289264 481.11137157 37.97506061 481.69126415 38.41002154 C483.56875995 39.82696201 485.43512188 41.25738641 487.29819775 42.69322467 C488.1789497 43.36381915 488.1789497 43.36381915 489.07749462 44.047961 C492.94898924 47.07602286 495.92978155 50.28134251 498.98569775 54.13072467 C499.74882275 54.89384967 500.51194775 55.65697467 501.29819775 56.44322467 C513.61657254 68.76159946 522.9514398 82.75698362 530.98569775 98.13072467 C531.32310986 98.76752154 531.66052197 99.40431842 532.00815868 100.06041217 C544.78001629 124.48269598 551.37540883 151.36297402 554.66099072 178.54674029 C554.94486369 180.80577158 555.26830896 183.05250516 555.614604 185.30259967 C558.630869 206.11889736 558.59564692 229.35246786 555.29331493 250.12486529 C554.96057524 252.29453937 554.69395196 254.46716254 554.43101025 256.64634967 C552.80114249 269.31199944 549.24376127 281.11588877 544.98569775 293.13072467 C544.73948681 293.83181354 544.49327587 294.5329024 544.239604 295.25523639 C536.15835129 317.861057 523.52378354 337.85323117 506.98569775 355.13072467 C505.45974857 356.85537841 503.93866823 358.58435598 502.42319775 360.31822467 C489.77032066 374.33234603 474.30965401 384.86064914 457.98569775 394.13072467 C457.39885204 394.47200397 456.81200634 394.81328326 456.20737743 395.16490436 C445.33327819 401.46741889 433.87012151 406.07946975 421.98569775 410.13072467 C421.2450407 410.39918956 420.50438366 410.66765445 419.74128246 410.94425464 C410.63654099 413.87064619 401.55825301 413.5680503 392.10288525 413.55064654 C390.20779962 413.55799692 388.31271847 413.56658595 386.41764355 413.57631183 C381.29784488 413.59843036 376.17820761 413.60146351 371.05836773 413.59956431 C366.77413234 413.59944421 362.48993065 413.60802437 358.20570469 413.61634183 C348.09523656 413.63553973 337.98485098 413.63847231 327.87436962 413.63170123 C317.46379869 413.62505732 307.05358177 413.64794735 296.64308262 413.68501496 C287.68393133 413.7157507 278.72489373 413.72706796 269.7656908 413.72317815 C264.42385835 413.72111532 259.08230176 413.72651851 253.74051952 413.75107074 C248.7170008 413.77340043 243.69405689 413.7714083 238.67053509 413.75114322 C236.83360118 413.74774461 234.99662809 413.75277241 233.15974712 413.7671268 C223.02085053 413.84085461 214.90490512 413.57660792 205.98569775 408.13072467 C205.20373028 407.67486735 204.42176281 407.21901004 203.61609936 406.74933887 C159.84999646 380.42886665 133.50470401 317.74839682 115.98569775 272.13072467 C114.69308927 268.98634563 113.38073647 265.85091683 112.06382275 262.71666217 C111.7080415 261.86330279 111.35226025 261.00994342 110.98569775 260.13072467 C110.6092915 259.25674029 110.23288525 258.38275592 109.84507275 257.48228717 C108.98569775 255.13072467 108.98569775 255.13072467 108.98569775 252.13072467 C109.97391553 252.1301799 110.96213331 252.12963513 111.98029709 252.12907386 C136.02537268 252.1146787 160.07026724 252.07166311 184.11523819 251.9986341 C195.74322196 251.96398043 207.37108714 251.93862807 218.99912548 251.93516803 C229.13408722 251.93212867 239.26883777 251.91164191 249.40371794 251.8702001 C254.77015587 251.84886598 260.13629352 251.83627171 265.50277424 251.84457088 C270.55491132 251.85210824 275.60643982 251.83630061 280.65846539 251.80266452 C282.51156032 251.79442753 284.36471572 251.79468569 286.21780491 251.80412745 C288.7515486 251.81575811 291.2833006 251.79661982 293.81688976 251.76996112 C294.54745289 251.78063438 295.27801602 251.79130764 296.03071743 251.80230433 C301.64094477 251.69243808 304.96787286 249.80590855 308.98569775 246.13072467 C314.7780576 239.25736453 319.27386394 231.7157013 321.98569775 223.13072467 C322.39819775 221.93447467 322.81069775 220.73822467 323.23569775 219.50572467 C325.99661772 207.26813344 324.296155 194.84414426 318.29819775 183.94322467 C313.99050235 177.14497585 308.44396621 172.21154263 300.98569775 169.13072467 C297.83708652 168.72213628 294.7259796 168.76552702 291.55507946 168.81274676 C290.61300241 168.81456673 289.67092536 168.81638669 288.70030051 168.8182618 C285.54739713 168.82769934 282.39505547 168.85841476 279.24228954 168.88878131 C276.98018043 168.89941159 274.71806389 168.90855011 272.45594311 168.91630816 C267.58593845 168.93507736 262.71607572 168.96220502 257.84614658 168.99512172 C250.14346224 169.04489366 242.44091946 169.06235208 234.73809338 169.07272601 C232.10008425 169.07667648 229.46207518 169.0806641 226.82406616 169.08468795 C226.16485773 169.08567625 225.5056493 169.08666455 224.82646486 169.0876828 C217.32883061 169.09920457 209.83121333 169.115938 202.33359814 169.1363399 C201.30598082 169.13912033 201.30598082 169.13912033 200.25760356 169.14195692 C189.15760085 169.17309295 178.05799538 169.23785273 166.95821061 169.31234629 C155.55036763 169.38783158 144.14321167 169.41650619 132.73508483 169.40680856 C126.33406352 169.40319014 119.93479697 169.42179639 113.53413486 169.49298549 C107.51290251 169.55978744 101.49413678 169.57088543 95.47264004 169.53953815 C93.26551318 169.5380125 91.05826049 169.55699096 88.85151768 169.59819102 C71.30873354 169.90814965 71.30873354 169.90814965 66.73991871 165.52757335 C64.33176916 162.64878959 62.65762783 159.48686322 60.98569775 156.13072467 C59.92848002 154.57103306 58.8498277 153.02528436 57.73569775 151.50572467 C56.89845165 150.29722857 56.89845165 150.29722857 56.0442915 149.06431842 C53.33502898 145.2034908 50.56587722 141.38729959 47.79819775 137.56822467 C43.4874727 131.61655523 39.21238793 125.6423608 34.98569775 119.63072467 C30.27595204 112.93370173 25.50297506 106.28485154 20.70273876 99.65245318 C13.28356415 89.40141357 5.95364279 79.09000694 -1.33168507 68.74351764 C-5.67683771 62.58440971 -10.08796759 56.47427076 -14.50966358 50.36998248 C-17.20708813 46.64316504 -19.88943837 42.90923243 -22.51430225 39.13072467 C-25.77111688 34.44448516 -29.1095255 29.81866744 -32.45180225 25.19322467 C-33.01616993 24.41189166 -33.58053761 23.63055865 -34.16200733 22.82554889 C-36.6170967 19.43058439 -39.07620961 16.03905388 -41.56117725 12.66588092 C-42.62078663 11.22535357 -42.62078663 11.22535357 -43.70180225 9.75572467 C-44.30379444 8.94361529 -44.90578663 8.13150592 -45.526021 7.29478717 C-46.90258743 5.29316565 -47.95430966 3.31005804 -49.01430225 1.13072467 C-32.66852112 0.20711661 -16.36969118 -0.01581694 0 0 Z " fill="#000000" transform="translate(881.0143022537231,432.8692753314972)"/>
<path d="M0 0 C1.32491382 1.97314134 2.51331543 3.93791331 3.6875 6 C7.72752915 12.91562405 11.92394432 19.72005048 16.1875 26.5 C21.7489768 35.36525553 27.23481225 44.27229595 32.66333008 53.21948242 C39.0502979 63.74302731 45.50937725 74.22185245 51.96777344 84.70166016 C55.31421046 90.13298694 58.6569115 95.56661176 62 101 C63.32941804 103.16016181 64.65884514 105.32031806 65.98828125 107.48046875 C68.69477409 111.87843695 71.40041008 116.2769308 74.10546875 120.67578125 C75.46609311 122.88805326 76.82676986 125.10029305 78.1875 127.3125 C79.18692627 128.937323 79.18692627 128.937323 80.20654297 130.5949707 C84.33312206 137.30053483 88.47446105 143.99674743 92.625 150.6875 C97.7174294 158.89838455 102.74832341 167.14551553 107.76342773 175.40380859 C111.70747138 181.89259108 115.68455477 188.35990237 119.6875 194.8125 C126.70248477 206.12089485 133.64501697 217.47226117 140.55078125 228.84765625 C141.16445557 229.85779785 141.77812988 230.86793945 142.41040039 231.90869141 C143.59686108 233.8621395 144.7823206 235.81619619 145.96655273 237.77099609 C149.30533891 243.26828294 152.71731887 248.71157403 156.18066406 254.13110352 C162.80495886 264.57690172 169.16322711 275.19201708 175.57275391 285.77050781 C182.43449555 297.09316304 189.3165781 308.40025593 196.4375 319.5625 C201.92371193 328.20456101 207.24292432 336.94460492 212.54290771 345.7013855 C218.19871883 355.04573512 223.91015838 364.35334062 229.671875 373.6328125 C233.56944678 379.91117873 237.44117934 386.20542984 241.3125 392.5 C241.95840088 393.55010254 242.60430176 394.60020508 243.26977539 395.68212891 C244.53624818 397.74138413 245.80260637 399.80070984 247.06884766 401.86010742 C249.100812 405.1639119 251.13440237 408.46671267 253.16796875 411.76953125 C256.12197593 416.56947934 259.06583938 421.37540497 262 426.1875 C268.61098226 437.0164236 275.26662445 447.81783715 281.91943359 458.62109375 C285.28077519 464.08001978 288.64031785 469.54005257 292 475 C293.33332425 477.16667226 294.66665759 479.33333892 296 481.5 C298.66666667 485.83333333 301.33333333 490.16666667 304 494.5 C304.66016113 495.5727417 305.32032227 496.6454834 306.00048828 497.75073242 C307.33226668 499.91491297 308.66397254 502.07913815 309.99560547 504.2434082 C313.35213255 509.69848297 316.70996186 515.15274836 320.0703125 520.60546875 C326.46938518 530.99175648 332.85366435 541.38627675 339.1875 551.8125 C345.19881086 561.70655695 351.27644027 571.55812708 357.38232422 581.39404297 C367.08079458 597.01756736 376.73530043 612.66623848 386.26953125 628.390625 C392.21968854 638.19749083 398.21341227 647.97243828 404.3125 657.6875 C410.26908131 667.17579038 416.10992835 676.72932855 421.91003418 686.31359863 C426.0864628 693.21417317 430.27471045 700.10535472 434.5625 706.9375 C434.94623779 707.54932129 435.32997559 708.16114258 435.7253418 708.79150391 C437.20951085 711.15512033 438.69578626 713.51739782 440.18408203 715.87841797 C441.33527826 717.7080061 442.48068918 719.54110005 443.625 721.375 C444.27726562 722.41398437 444.92953125 723.45296875 445.6015625 724.5234375 C447 727 447 727 447 729 C435.64377898 735.03054495 424.15618858 739.8260216 412 744 C410.90429688 744.39058594 409.80859375 744.78117187 408.6796875 745.18359375 C405.47539853 746.25866198 402.27409616 747.15984096 399 748 C398.30326172 748.18191895 397.60652344 748.36383789 396.88867188 748.55126953 C384.1848809 751.72721728 371.65358178 752.39786525 358.625 752.4375 C357.8700827 752.44358276 357.11516541 752.44966553 356.33737183 752.45593262 C342.47028498 752.52904522 329.10969216 750.86738508 315.9375 746.3125 C315.19491943 746.05903809 314.45233887 745.80557617 313.68725586 745.54443359 C298.22078559 740.04414433 283.81716815 732.1098969 275 718 C274.45335693 717.13463623 273.90671387 716.26927246 273.34350586 715.37768555 C271.55223749 712.52880796 269.77497362 709.67155561 268 706.8125 C263.04041915 698.84874617 258.04930456 690.90717064 253 683 C247.48440511 674.35968038 242.03917836 665.67736506 236.61645508 656.97851562 C231.76321019 649.20121119 226.85284172 641.4616622 221.92236328 633.7331543 C218.1439238 627.80736087 214.39851557 621.8624146 210.68188477 615.89770508 C205.99898273 608.38501269 201.26389134 600.90537865 196.53222656 593.42333984 C193.52107229 588.66095659 190.51328491 583.89644629 187.50488281 579.13232422 C184.9809457 575.13567886 182.4561638 571.13957203 179.9296875 567.14453125 C175.30951355 559.83699296 170.69722343 552.52515094 166.125 545.1875 C161.56898968 537.87897734 156.94586092 530.61385902 152.31738281 523.35107422 C147.00677442 515.01672918 141.72640712 506.66360498 136.45458984 498.3046875 C135.00918211 496.01454836 133.56159316 493.72580343 132.11328125 491.4375 C126.61297324 482.74474423 121.13833651 474.03637074 115.6875 465.3125 C115.05739014 464.30429199 114.42728027 463.29608398 113.77807617 462.25732422 C110.59197416 457.1571335 107.41104247 452.05381362 104.23828125 446.9453125 C98.03703241 436.97329645 91.76502254 427.06162986 85.3125 417.25 C80.09882815 409.32104246 75.10980065 401.29442075 70.2722168 393.13134766 C66.3128195 386.46688373 62.14966522 379.95740939 57.91015625 373.46875 C52.7686531 365.5975438 47.75323303 357.6447024 42.71679688 349.70605469 C41.60671945 347.95632514 40.49608064 346.20695158 39.38476562 344.45800781 C33.99491302 335.97423103 28.65405167 327.46658546 23.4375 318.875 C18.50384587 310.75060217 13.3676117 302.76890818 8.17675781 294.80712891 C2.68438755 286.37258021 -2.59822474 277.80983335 -7.88793945 269.24755859 C-13.04314023 260.91139549 -18.26958773 252.62166275 -23.51611328 244.34277344 C-26.51171705 239.61328779 -29.49866334 234.87832825 -32.48706055 230.14428711 C-35.58854654 225.23203351 -38.69580843 220.32348671 -41.80639648 215.41699219 C-43.33304854 213.00381268 -44.85284249 210.58644 -46.37109375 208.16796875 C-47.85960326 205.79718479 -49.36516459 203.44814595 -50.91015625 201.11328125 C-60.47516912 186.31319739 -65.0680803 164.84941062 -65.23828125 147.40234375 C-65.24812042 146.57954926 -65.25795959 145.75675476 -65.26809692 144.9090271 C-65.59334554 110.65958217 -65.59334554 110.65958217 -61 95 C-60.76394043 94.16130371 -60.52788086 93.32260742 -60.28466797 92.45849609 C-55.11456288 74.47479721 -24.78705011 0 0 0 Z " fill="#000000" transform="translate(793,438)"/>
<path d="M0 0 C2.97367394 1.32807985 4.96022666 2.74301181 7.171875 5.125 C7.74945557 5.7435083 8.32703613 6.3620166 8.92211914 6.99926758 C9.82692017 7.98963013 9.82692017 7.98963013 10.75 9 C11.3783374 9.68280029 12.0066748 10.36560059 12.65405273 11.0690918 C17.34762205 16.20672118 21.83021798 21.424847 26 27 C26.70092773 27.92474121 26.70092773 27.92474121 27.41601562 28.86816406 C45.66068333 53.03155647 60.0879262 80.00694304 69 109 C69.23799316 109.7636084 69.47598633 110.5272168 69.72119141 111.31396484 C72.26015556 119.57131674 74.32086078 127.86398833 75.8125 136.375 C75.93657227 137.06352051 76.06064453 137.75204102 76.18847656 138.46142578 C77.9728143 149.57537604 77.64249345 157.73965507 71.75 167.5 C71.20859375 168.44141846 70.6671875 169.38283691 70.109375 170.3527832 C68.43234209 173.25143947 66.71965478 176.12647075 65 179 C63.98334532 180.73246909 62.96768177 182.46552027 61.953125 184.19921875 C55.2202873 195.62161172 48.13673521 206.82701905 41 218 C40.59152832 218.64163086 40.18305664 219.28326172 39.76220703 219.94433594 C34.40744525 228.35479197 28.91876112 236.67036659 23.36962891 244.95361328 C21.38565073 247.91791008 19.40770709 250.8862172 17.4296875 253.85449219 C15.8951261 256.15729821 14.35968401 258.45951534 12.82421875 260.76171875 C11.11534113 263.32474932 9.40894785 265.88937356 7.70703125 268.45703125 C7.04058594 269.46121094 6.37414062 270.46539063 5.6875 271.5 C5.13449219 272.3353125 4.58148437 273.170625 4.01171875 274.03125 C1.67655579 277.47731573 -0.71080651 280.88450835 -3.10180664 284.29199219 C-5.60837569 287.86792323 -8.10022817 291.45398634 -10.59228516 295.04003906 C-13.37314445 299.04144403 -16.15715647 303.04065283 -18.94091797 307.04003906 C-20.25339575 308.92674533 -21.5650114 310.81405183 -22.87548828 312.70214844 C-29.7606469 322.62205139 -36.75429055 332.439005 -43.95703125 342.13110352 C-47.62252245 347.07982622 -51.16828647 352.09108748 -54.625 357.1875 C-58.71179035 363.20911733 -62.98298925 369.05752701 -67.37719727 374.85791016 C-71.17506692 379.87733113 -74.88690005 384.95294351 -78.5625 390.0625 C-83.84814687 397.40779377 -89.17223419 404.72265248 -94.53710938 412.01025391 C-96.10585547 414.14397899 -97.67022054 416.28087577 -99.234375 418.41796875 C-106.0702281 427.74350121 -113.01036152 436.98065207 -120.0378418 446.16259766 C-124.41994927 451.89796417 -128.73497515 457.67713921 -133 463.5 C-138.63406248 471.19021318 -144.37852507 478.79025819 -150.17089844 486.36181641 C-154.23334355 491.67340908 -158.25743639 497.01075809 -162.25 502.375 C-166.61415279 508.22945906 -171.12234628 513.95129681 -175.70751953 519.63378906 C-179.51178182 524.35813453 -183.17531603 529.17380374 -186.79296875 534.04296875 C-189.5547619 537.74328276 -192.36176568 541.40770419 -195.19311523 545.05493164 C-197.37274964 547.86552396 -199.51677565 550.69416138 -201.609375 553.5703125 C-202.0412915 554.15498291 -202.47320801 554.73965332 -202.91821289 555.34204102 C-204.11395101 556.96280781 -205.29761901 558.59245959 -206.48046875 560.22265625 C-213.67579286 568.15424608 -223.96455478 569.62230094 -234.21972656 570.17285156 C-249.38592739 570.67099617 -264.16960354 570.31250878 -279 567 C-279.90991699 566.80132324 -280.81983398 566.60264648 -281.75732422 566.39794922 C-301.62191871 561.9729144 -320.52006456 555.34481747 -339.375 547.75 C-340.42236328 547.33782227 -341.46972656 546.92564453 -342.54882812 546.50097656 C-343.99032227 545.90494629 -343.99032227 545.90494629 -345.4609375 545.296875 C-346.31478027 544.94979492 -347.16862305 544.60271484 -348.04833984 544.24511719 C-350 543 -350 543 -350.92626953 541.1027832 C-351.02242905 538.36032652 -350.28299867 537.29700314 -348.71875 535.05859375 C-348.21005371 534.31585205 -347.70135742 533.57311035 -347.17724609 532.80786133 C-346.62375488 532.02564209 -346.07026367 531.24342285 -345.5 530.4375 C-344.37677022 528.80526107 -343.25437001 527.17245095 -342.1328125 525.5390625 C-341.58786133 524.75305664 -341.04291016 523.96705078 -340.48144531 523.15722656 C-338.71309245 520.5822157 -337.03121268 517.96084009 -335.375 515.3125 C-332.79878252 511.22267752 -330.13423896 507.1983913 -327.4375 503.1875 C-323.22836186 496.9195088 -319.162422 490.56722212 -315.125 484.1875 C-310.24371612 476.47689897 -305.27045267 468.83977031 -300.18579102 461.26196289 C-296.90108013 456.36374838 -293.67832686 451.43298586 -290.50048828 446.46459961 C-283.4564365 435.45217863 -276.35501135 424.47472354 -269.0625 413.625 C-265.13145034 407.76910804 -261.33449309 401.83438505 -257.5625 395.875 C-251.9353641 386.98741235 -246.21109269 378.16776506 -240.4375 369.375 C-240.02857513 368.75223175 -239.61965027 368.1294635 -239.19833374 367.48782349 C-237.57976904 365.02315178 -235.96110509 362.55854534 -234.34214783 360.09413147 C-231.00379979 355.01057148 -227.68487407 349.9146295 -224.375 344.8125 C-219.392943 337.13406377 -214.38724314 329.47125139 -209.375 321.8125 C-204.2617717 313.99893924 -199.1615749 306.17749665 -194.09667969 298.33251953 C-189.64729058 291.44449079 -185.16444333 284.5783766 -180.68261719 277.71142578 C-176.65613481 271.54148753 -172.63715062 265.36676553 -168.625 259.1875 C-165.00149953 253.60717326 -161.36977021 248.03232598 -157.7265625 242.46484375 C-157.35612823 241.89869858 -156.98569397 241.33255341 -156.60403442 240.74925232 C-154.79501908 237.98483742 -152.98520345 235.22095322 -151.17431641 232.45776367 C-147.64127701 227.06150194 -144.12915063 221.65280763 -140.6484375 216.22265625 C-135.17049415 207.68033357 -129.58557595 199.20870123 -124.00585938 190.73266602 C-119.10923405 183.29228236 -114.24029435 175.83963506 -109.47558594 168.3137207 C-107.51278248 165.23604229 -105.48171925 162.21177427 -103.4375 159.1875 C-99.22661028 152.92072473 -95.16238414 146.56716229 -91.125 140.1875 C-86.24371612 132.47689897 -81.27045267 124.83977031 -76.18579102 117.26196289 C-72.90108013 112.36374838 -69.67832686 107.43298586 -66.50048828 102.46459961 C-59.4564365 91.45217863 -52.35501135 80.47472354 -45.0625 69.625 C-40.52619114 62.86748308 -36.17274825 55.99923613 -31.8203125 49.12231445 C-25.8647872 39.73772932 -19.77012835 30.44619781 -13.66040039 21.16162109 C-9.04592404 14.14596301 -4.48313283 7.10062533 0 0 Z " fill="#000000" transform="translate(665,599)"/>
<path d="M0 0 C22.20055663 -0.44464313 44.40037535 -0.77927199 66.60448742 -0.98443127 C76.91549555 -1.08224253 87.22373122 -1.21547266 97.53295898 -1.43334961 C106.52305231 -1.62325651 115.51113788 -1.74542352 124.50318128 -1.7876814 C129.26192114 -1.8123742 134.01492002 -1.86998408 138.77181053 -2.00887108 C167.64304451 -2.81952499 167.64304451 -2.81952499 174.81180191 1.81960678 C179.16926291 6.12024996 181.69045797 10.92717757 183.92960548 16.56876183 C185.69831001 20.58610488 188.31307781 23.94490147 190.9375 27.4375 C191.93081182 28.83198706 192.92082225 30.22883672 193.90625 31.62890625 C194.40769531 32.3367627 194.90914062 33.04461914 195.42578125 33.77392578 C203.40911987 45.06302032 211.30348226 56.41095044 219.09204102 67.83520508 C224.77277628 76.1560506 230.55764635 84.40321449 236.34838867 92.64770508 C241.73109212 100.31397969 247.09023 107.99647868 252.4375 115.6875 C253.12126709 116.67065186 253.80503418 117.65380371 254.50952148 118.66674805 C257.40142919 122.82487627 260.29298408 126.98324979 263.18457031 131.14160156 C265.31042367 134.19865341 267.43645827 137.25557915 269.5625 140.3125 C270.20437256 141.23571045 270.84624512 142.1589209 271.50756836 143.11010742 C274.49886328 147.41109389 277.49434475 151.70903442 280.5 156 C284.15726955 161.22123013 287.79856632 166.45347985 291.4375 171.6875 C292.84633369 173.71355591 294.25518847 175.73959714 295.6640625 177.765625 C296.37981445 178.79494141 297.09556641 179.82425781 297.83300781 180.88476562 C299.95793787 183.93953214 302.08420649 186.9933621 304.2109375 190.046875 C310.52254085 199.11070478 316.82222614 208.18153037 323.06420898 217.29345703 C326.78429889 222.71222768 330.57949698 228.07618657 334.38208008 233.43725586 C338.68260573 239.51545182 342.87422009 245.66458672 347.05834961 251.82324219 C350.9173257 257.47898715 354.8987953 263.03405214 358.9375 268.5625 C363.29728631 274.53351168 367.37811595 280.54511291 371 287 C358.1919368 285.3048984 345.47738443 283.08346775 332.75 280.875 C331.61149597 280.67813599 330.47299194 280.48127197 329.29998779 280.27844238 C312.84053324 277.4286909 296.41844657 274.42078832 280.0189209 271.24539185 C267.82667554 268.88564432 255.62632131 266.71021913 243.3671875 264.72387695 C234.34872745 263.25426202 225.38459023 261.57204451 216.41992188 259.80615234 C208.23657386 258.20511745 200.03240935 256.79174709 191.79150391 255.51928711 C189.94204371 255.22487983 188.09760492 254.8975977 186.25878906 254.54272461 C183.7211934 254.12010885 181.3511337 253.88531395 178.79589844 253.72485352 C171.4669516 253.01575655 165.98442351 251.66042559 161.06640625 245.89086914 C157.05792073 240.53151374 153.65667648 234.81496487 150.25 229.0625 C149.05856267 227.13546128 147.86197026 225.21159996 146.66015625 223.29101562 C144.2592175 219.44296034 141.88486515 215.5802484 139.52636719 211.70605469 C134.51596675 203.53028005 129.13656427 195.60544463 123.78039551 187.65414429 C120.70631639 183.07142685 117.67411014 178.46121007 114.640625 173.8515625 C114.03148254 172.92663498 113.42234009 172.00170746 112.79473877 171.04875183 C110.94597828 168.24117268 109.09790885 165.43313975 107.25 162.625 C99.20017744 150.39405053 91.13724718 138.17298562 83 126 C81.33263415 123.50046595 79.66633935 121.00021845 78 118.5 C77.15585954 117.23379438 76.31170275 115.96759964 75.4675293 114.70141602 C73.90890167 112.36349354 72.35049732 110.02542277 70.79223633 107.68725586 C66.62841049 101.43971279 62.46218573 95.19378505 58.2918396 88.95059204 C45.76951087 70.20300237 33.27307062 51.44046187 20.93115234 32.57348633 C15.79419345 24.72188207 10.62830904 16.89098599 5.37109375 9.11914062 C3.37374392 6.15035246 1.55621574 3.2198772 0 0 Z " fill="#000000" transform="translate(1115,898)"/>
<path d="M0 0 C1.15756176 0.67694158 2.31105165 1.3608815 3.4609375 2.05078125 C4.71563012 2.78603701 5.9708437 3.52040444 7.2265625 4.25390625 C7.84208984 4.61548828 8.45761719 4.97707031 9.09179688 5.34960938 C11.43970271 6.71418175 13.82092273 8.01162177 16.2109375 9.30078125 C20.89903072 11.83436837 25.54549484 14.43804242 30.1875 17.0546875 C30.92524658 17.47012817 31.66299316 17.88556885 32.4230957 18.31359863 C34.22757558 19.32980572 36.03178428 20.34649432 37.8359375 21.36328125 C38.00958693 40.11322042 38.17572799 58.86322281 38.3359375 77.61328125 C38.34188604 78.30847004 38.34783458 79.00365884 38.35396338 79.71991396 C38.67962335 117.83027335 38.93499586 155.93869125 38.8984375 194.05078125 C38.89758148 194.94994766 38.89672546 195.84911407 38.89584351 196.77552795 C38.88502504 207.30480737 38.86495106 217.83403579 38.8359375 228.36328125 C42.7959375 228.36328125 46.7559375 228.36328125 50.8359375 228.36328125 C50.8359375 182.16328125 50.8359375 135.96328125 50.8359375 88.36328125 C52.8359375 89.36328125 54.8359375 90.36328125 56.8359375 91.36328125 C56.8359375 136.57328125 56.8359375 181.78328125 56.8359375 228.36328125 C59.1459375 228.36328125 61.4559375 228.36328125 63.8359375 228.36328125 C64.76440908 225.20227307 64.97140418 222.35009831 64.99415588 219.06085205 C65.0039447 217.98675583 65.01373352 216.91265961 65.02381897 215.80601501 C65.02957443 214.63285233 65.0353299 213.45968964 65.04125977 212.25097656 C65.05115936 211.011689 65.06105896 209.77240143 65.07125854 208.49555969 C65.09742619 205.10128187 65.11929651 201.70702732 65.13926053 198.31271076 C65.16114776 194.76392923 65.18852305 191.21519014 65.21531677 187.66644287 C65.26520667 180.94819033 65.31015921 174.22991417 65.35333914 167.51161551 C65.40274318 159.86230536 65.45764956 152.2130378 65.51301873 144.56376886 C65.62678192 128.83031237 65.73363326 113.09681668 65.8359375 97.36328125 C67.8159375 98.02328125 69.7959375 98.68328125 71.8359375 99.36328125 C71.8359375 142.26328125 71.8359375 185.16328125 71.8359375 229.36328125 C74.1459375 229.69328125 76.4559375 230.02328125 78.8359375 230.36328125 C79.1659375 189.11328125 79.4959375 147.86328125 79.8359375 105.36328125 C84.8359375 107.36328125 84.8359375 107.36328125 86.8359375 109.36328125 C87.08203316 111.51469612 87.08203316 111.51469612 87.07644653 114.23538208 C87.08057053 115.77929626 87.08057053 115.77929626 87.08477783 117.35440063 C87.07758728 118.48800018 87.07039673 119.62159973 87.06298828 120.78955078 C87.06328033 121.97977844 87.06357239 123.1700061 87.06387329 124.39630127 C87.06271665 127.66474167 87.05266908 130.933012 87.03872538 134.2014184 C87.02624386 137.61538107 87.02504956 141.02934689 87.02267456 144.44332886 C87.01645219 150.91025026 87.00003117 157.37710425 86.97997558 163.84399593 C86.95764009 171.20544052 86.94662908 178.56688829 86.93658471 185.92835832 C86.91566557 201.07337023 86.88047493 216.21831901 86.8359375 231.36328125 C89.1459375 231.36328125 91.4559375 231.36328125 93.8359375 231.36328125 C93.82808228 229.93737671 93.82808228 229.93737671 93.82006836 228.48266602 C93.68827229 201.68808803 93.95226706 174.90453861 94.3359375 148.11328125 C94.35387423 146.86039747 94.35387423 146.86039747 94.37217331 145.58220291 C94.521629 135.17581751 94.67633504 124.7695159 94.8359375 114.36328125 C96.8159375 115.02328125 98.7959375 115.68328125 100.8359375 116.36328125 C100.8359375 154.64328125 100.8359375 192.92328125 100.8359375 232.36328125 C103.4759375 232.36328125 106.1159375 232.36328125 108.8359375 232.36328125 C108.83371689 231.29491531 108.83149628 230.22654938 108.82920837 229.12580872 C108.80876866 218.96349631 108.7938664 208.80118819 108.78412533 198.63885975 C108.77894872 193.41670169 108.77194832 188.19456048 108.76049805 182.97241211 C108.74948058 177.91490709 108.74362157 172.85741807 108.74106026 167.79990196 C108.73923944 165.88861528 108.73568583 163.97732928 108.73020744 162.06604958 C108.69376455 148.80134114 109.09277217 135.60738178 109.8359375 122.36328125 C113.7109375 124.23828125 113.7109375 124.23828125 114.8359375 125.36328125 C114.95598397 128.31808347 115.01143223 131.25053765 115.02539062 134.20654297 C115.03368393 135.13511612 115.04197723 136.06368927 115.05052185 137.020401 C115.06797101 139.04584896 115.08312433 141.07131766 115.09629822 143.09679794 C115.11729375 146.30922487 115.1443263 149.52155003 115.17297363 152.73391724 C115.23279679 159.56866588 115.2847803 166.40346303 115.3359375 173.23828125 C115.39529746 181.12453741 115.45789811 189.01074531 115.52781677 196.89691544 C115.55421534 200.04908964 115.57514683 203.20126896 115.5958252 206.35348511 C115.61245125 208.31101704 115.62932505 210.26854689 115.64648438 212.22607422 C115.65066879 213.09197678 115.65485321 213.95787933 115.65916443 214.85002136 C115.72160528 221.06030429 116.19688192 227.18675358 116.8359375 233.36328125 C118.4859375 233.69328125 120.1359375 234.02328125 121.8359375 234.36328125 C121.84806778 232.45314743 121.84806778 232.45314743 121.86044312 230.50442505 C121.93779916 218.52601492 122.02551141 206.54771985 122.12346458 194.56945992 C122.17349231 188.41075027 122.21982164 182.25205832 122.2578125 176.09326172 C122.29458363 170.15395131 122.34092098 164.21478671 122.39400101 158.27560043 C122.41258854 156.00533471 122.42768022 153.73503767 122.43928146 151.46472549 C122.45606951 148.29420159 122.48508616 145.12401485 122.51708984 141.95361328 C122.52033012 140.53373611 122.52033012 140.53373611 122.52363586 139.08517456 C122.54038109 137.793685 122.54038109 137.793685 122.5574646 136.47610474 C122.56299536 135.72576525 122.56852612 134.97542576 122.57422447 134.20234871 C122.8359375 132.36328125 122.8359375 132.36328125 124.8359375 130.36328125 C127.30046082 131.25105286 127.30046082 131.25105286 129.8359375 133.36328125 C130.61443165 136.60794106 130.46626078 139.83745259 130.40356445 143.15893555 C130.40429459 144.16399139 130.40502472 145.16904724 130.40577698 146.20455933 C130.40228839 149.53275172 130.3633656 152.85955155 130.32421875 156.1875 C130.31489519 158.49248998 130.30777692 160.79748986 130.30278015 163.10249329 C130.28367463 169.17399373 130.23454231 175.24489763 130.17926025 181.31616211 C130.1281449 187.50952076 130.10528255 193.70297566 130.08007812 199.89648438 C130.02642774 212.05234567 129.9410713 224.20776389 129.8359375 236.36328125 C130.61349899 236.4207402 131.39106049 236.47819916 132.19218445 236.53739929 C138.02628529 236.99170475 143.72871841 237.55928308 149.48046875 238.6328125 C150.13818771 238.75508713 150.79590668 238.87736176 151.47355652 239.00334167 C152.8459637 239.26009928 154.21782222 239.5198072 155.58911133 239.7824707 C157.634036 240.17303071 159.68100074 240.55101912 161.72851562 240.92773438 C172.96209567 243.02909465 184.00977194 245.65929544 194.8359375 249.36328125 C194.8359375 249.69328125 194.8359375 250.02328125 194.8359375 250.36328125 C181.50580914 250.48007639 168.19831459 250.37565711 154.87451172 249.93237305 C154.2182092 249.91061725 153.56190668 249.88886144 152.8857162 249.86644638 C150.1226122 249.77483605 147.35952028 249.68286911 144.5964421 249.59048337 C101.35980251 248.15358473 58.14005842 248.08678082 14.88378119 248.16268623 C7.94806859 248.17429496 1.01238198 248.17842609 -5.92333984 248.17797852 C-45.5201924 248.17573951 -85.11398826 248.25249643 -124.70780039 248.78128982 C-126.9893861 248.81173293 -129.27098131 248.84137201 -131.55257797 248.87098122 C-158.10871947 249.22151312 -184.63982459 249.98729981 -211.1640625 251.36328125 C-208.15485186 248.35407061 -204.3617543 247.76761834 -200.3515625 246.67578125 C-199.41683105 246.42103027 -198.48209961 246.1662793 -197.51904297 245.90380859 C-187.69549439 243.33771395 -177.7577006 241.39071923 -167.7890625 239.48828125 C-166.9770639 239.33130768 -166.16506531 239.17433411 -165.32846069 239.01260376 C-162.975777 238.56056323 -160.6212569 238.11998325 -158.265625 237.68359375 C-157.56731064 237.54951614 -156.86899628 237.41543854 -156.14952087 237.27729797 C-151.38867984 236.4173612 -146.97514821 236.31942353 -142.1640625 236.36328125 C-142.17294495 235.07955124 -142.18182739 233.79582123 -142.190979 232.47319031 C-142.27196466 220.39221866 -142.33197978 208.31130187 -142.37131119 196.23012066 C-142.39221146 190.01861471 -142.42057401 183.80732738 -142.46582031 177.59594727 C-142.50919044 171.60482946 -142.53318121 165.61392232 -142.54357147 159.62265968 C-142.5509787 157.33362319 -142.56544271 155.0445986 -142.58698273 152.75565147 C-142.61589871 149.55649006 -142.62002338 146.358206 -142.61816406 143.15893555 C-142.63254517 142.20659531 -142.64692627 141.25425507 -142.66174316 140.27305603 C-142.62131475 133.87070515 -142.62131475 133.87070515 -140.26068115 131.25105286 C-138.1640625 130.36328125 -138.1640625 130.36328125 -136.1640625 130.36328125 C-136.1640625 165.01328125 -136.1640625 199.66328125 -136.1640625 235.36328125 C-132.6990625 234.37328125 -132.6990625 234.37328125 -129.1640625 233.36328125 C-129.15597565 232.07146439 -129.14788879 230.77964752 -129.13955688 229.44868469 C-129.06210268 217.2799016 -128.97436505 205.11123042 -128.87653542 192.94259357 C-128.82657031 186.6864424 -128.7802401 180.43030814 -128.7421875 174.17407227 C-128.70533768 168.13749287 -128.6589782 162.10105482 -128.60599899 156.06459618 C-128.5874535 153.76052515 -128.57234612 151.45642383 -128.56071854 149.15230751 C-128.54385903 145.92731855 -128.51482404 142.70265341 -128.48291016 139.4777832 C-128.48074997 138.52328278 -128.47858978 137.56878235 -128.47636414 136.58535767 C-128.36683165 127.93199461 -128.36683165 127.93199461 -126.1640625 124.36328125 C-124.8440625 123.70328125 -123.5240625 123.04328125 -122.1640625 122.36328125 C-122.1640625 158.66328125 -122.1640625 194.96328125 -122.1640625 232.36328125 C-119.5240625 232.36328125 -116.8840625 232.36328125 -114.1640625 232.36328125 C-114.1640625 194.41328125 -114.1640625 156.46328125 -114.1640625 117.36328125 C-111.8540625 116.04328125 -109.5440625 114.72328125 -107.1640625 113.36328125 C-107.1640625 152.30328125 -107.1640625 191.24328125 -107.1640625 231.36328125 C-104.5240625 231.36328125 -101.8840625 231.36328125 -99.1640625 231.36328125 C-99.16682788 230.73121576 -99.16959326 230.09915028 -99.17244244 229.44793129 C-99.23863309 214.08373339 -99.28830925 198.71958494 -99.31949902 183.35527992 C-99.33498222 175.92527783 -99.35609932 168.49537078 -99.39038086 161.06542969 C-99.42023894 154.59112307 -99.43962692 148.11688527 -99.44632798 141.64251173 C-99.45024639 138.21286782 -99.4594849 134.78342081 -99.48125267 131.35383987 C-99.50532929 127.52963765 -99.50603481 123.70562982 -99.50463867 119.88134766 C-99.5154245 118.73839737 -99.52621033 117.59544708 -99.537323 116.41786194 C-99.53319901 115.38017166 -99.52907501 114.34248138 -99.52482605 113.27334595 C-99.52759143 112.36814524 -99.53035681 111.46294453 -99.53320599 110.53031349 C-99.41138864 109.81519285 -99.28957129 109.10007221 -99.1640625 108.36328125 C-96.1640625 106.36328125 -96.1640625 106.36328125 -93.1640625 106.36328125 C-92.17334098 135.09157034 -92.07497127 163.80898693 -92.1015625 192.55078125 C-92.10241852 193.48255566 -92.10327454 194.41433006 -92.10415649 195.37434006 C-92.11565714 207.03733962 -92.13588968 218.70031028 -92.1640625 230.36328125 C-89.5240625 230.03328125 -86.8840625 229.70328125 -84.1640625 229.36328125 C-84.16682788 228.70729069 -84.16959326 228.05130013 -84.17244244 227.37543106 C-84.23867868 211.41802161 -84.28833154 195.46065993 -84.31949902 179.50314713 C-84.33497177 171.78622757 -84.35606902 164.06939974 -84.39038086 156.35253906 C-84.4202708 149.62697659 -84.43963454 142.90148054 -84.44632798 136.17585349 C-84.45024096 132.61424522 -84.45944526 129.052827 -84.48125267 125.4912796 C-84.50539251 121.51661094 -84.50603275 117.54212867 -84.50463867 113.56738281 C-84.5154245 112.38486938 -84.52621033 111.20235596 -84.537323 109.98400879 C-84.53319901 108.90149841 -84.52907501 107.81898804 -84.52482605 106.70367432 C-84.52759143 105.76344547 -84.53035681 104.82321663 -84.53320599 103.854496 C-84.0953494 100.89956162 -83.2213845 99.50247896 -81.1640625 97.36328125 C-80.5040625 97.36328125 -79.8440625 97.36328125 -79.1640625 97.36328125 C-78.39409955 105.36613961 -78.00704878 113.28847074 -77.97460938 121.32641602 C-77.96216942 123.01893745 -77.96216942 123.01893745 -77.94947815 124.74565125 C-77.93221077 127.1714451 -77.91700902 129.59725439 -77.90370178 132.0230732 C-77.8825066 135.86006427 -77.85550482 139.69697678 -77.82702637 143.53392029 C-77.76260284 152.35722123 -77.70633354 161.18056691 -77.65103912 170.00392914 C-77.5960978 178.76692543 -77.53750929 187.52987278 -77.47218323 196.292799 C-77.44559553 200.07690467 -77.42480002 203.86101467 -77.4041748 207.64515686 C-77.38757981 209.95167244 -77.37070869 212.25818606 -77.35351562 214.56469727 C-77.34933121 215.61974457 -77.34514679 216.67479187 -77.34083557 217.7618103 C-77.33249191 218.72463425 -77.32414825 219.68745819 -77.31555176 220.67945862 C-77.31039803 221.51653131 -77.30524429 222.35360399 -77.29993439 223.21604252 C-77.24417466 225.54908825 -77.24417466 225.54908825 -76.1640625 228.36328125 C-73.8540625 228.36328125 -71.5440625 228.36328125 -69.1640625 228.36328125 C-69.17097595 227.30833733 -69.17097595 227.30833733 -69.17802906 226.23208141 C-69.28837508 209.13177397 -69.37115401 192.03155677 -69.42312336 174.9309721 C-69.44892239 166.66128962 -69.48410499 158.39184456 -69.54125977 150.12231445 C-69.59104318 142.91589526 -69.62334116 135.70964796 -69.63450497 128.50306159 C-69.64103246 124.68592893 -69.65640806 120.86928811 -69.69271278 117.05231285 C-69.72659301 113.46122564 -69.73713207 109.8708339 -69.72960091 106.27960205 C-69.73163737 104.32989139 -69.75857441 102.38025688 -69.78616333 100.43074036 C-69.77929001 99.27387726 -69.77241669 98.11701416 -69.76533508 96.9250946 C-69.77224853 95.41381501 -69.77224853 95.41381501 -69.77930164 93.87200451 C-69.57627273 93.04412583 -69.37324381 92.21624716 -69.1640625 91.36328125 C-67.5140625 90.37328125 -65.8640625 89.38328125 -64.1640625 88.36328125 C-64.1640625 134.56328125 -64.1640625 180.76328125 -64.1640625 228.36328125 C-60.2040625 228.03328125 -56.2440625 227.70328125 -52.1640625 227.36328125 C-52.15375504 225.9328952 -52.14344757 224.50250916 -52.13282776 223.02877808 C-52.0919199 217.36372436 -52.05050655 211.6986744 -52.00905418 206.03362465 C-51.98507963 202.73908756 -51.96142285 199.4445484 -51.9379068 196.15000802 C-51.83448348 181.70434025 -51.72112301 167.25886533 -51.58045483 152.81350815 C-51.52354772 146.94414343 -51.4688073 141.07475823 -51.41477871 135.20536637 C-51.40125673 133.73776108 -51.38764622 132.2701566 -51.3739481 130.80255294 C-51.20631913 112.7609302 -51.14472961 94.72958374 -51.36997032 76.68767548 C-51.43132356 71.23872096 -51.45633577 65.78947711 -51.47932529 60.34024048 C-51.50062058 56.25030269 -51.55044719 52.16479377 -51.66604614 48.07635498 C-52.31582481 24.5818758 -52.31582481 24.5818758 -48.76712036 19.27374268 C-45.32725316 15.99634051 -41.48856319 14.3535829 -36.9954834 12.96578979 C-34.52942964 12.15449706 -32.49861034 10.88669328 -30.33203125 9.47265625 C-24.41272133 5.95262282 -18.48356797 2.43148923 -12.4140625 -0.82421875 C-11.69734375 -1.20964844 -10.980625 -1.59507812 -10.2421875 -1.9921875 C-6.25416049 -3.22907558 -3.60122095 -1.8628538 0 0 Z " fill="#030303" transform="translate(790.1640625,940.63671875)"/>
<path d="M0 0 C7.91503303 6.76758741 13.56576619 14.24085449 14.4765625 24.86328125 C14.50638972 26.28620531 14.51882292 27.70957945 14.515625 29.1328125 C14.51401367 29.88022705 14.51240234 30.6276416 14.51074219 31.39770508 C14.31754788 40.18899331 11.71418873 48.07125056 6.140625 54.9453125 C5.480625 54.9453125 4.820625 54.9453125 4.140625 54.9453125 C4.140625 55.6053125 4.140625 56.2653125 4.140625 56.9453125 C-5.49704164 65.2952742 -14.5460834 67.65269234 -27.046875 67.2265625 C-37.51652984 66.45421091 -44.49210777 61.69115778 -51.609375 54.1953125 C-55.23579851 49.89824903 -57.10995177 45.24060968 -58.859375 39.9453125 C-59.354375 38.4603125 -59.354375 38.4603125 -59.859375 36.9453125 C-60.95042272 25.38020662 -59.12168711 14.82670358 -51.734375 5.5703125 C-37.6727044 -8.92119083 -16.7492534 -12.03566569 0 0 Z " fill="#060606" transform="translate(951.859375,1364.0546875)"/>
<path d="M0 0 C8.48871976 5.97475275 14.61317755 13.37476821 16.71875 23.6796875 C18.19224968 35.7563706 16.63655476 46.55936611 9.09375 56.4921875 C2.73978187 63.20829889 -6.1369329 68.50562213 -15.453125 69.015625 C-27.63212387 69.26166538 -35.5587494 68.12349437 -45.09375 59.9921875 C-53.5140974 51.89295505 -57.18985544 43.49928151 -57.65625 31.9296875 C-57.42899702 21.32900448 -53.82202535 12.17729047 -46.28125 4.6796875 C-32.67484437 -6.87674642 -15.8371907 -9.1660453 0 0 Z " fill="#060606" transform="translate(687.28125,1362.3203125)"/>
<path d="M0 0 C5.919375 -0.0825 11.83875 -0.165 17.9375 -0.25 C19.78722412 -0.28641602 21.63694824 -0.32283203 23.54272461 -0.36035156 C39.07837408 -0.53963847 39.07837408 -0.53963847 46 4 C47.19689453 4.68642578 47.19689453 4.68642578 48.41796875 5.38671875 C56.50015011 11.32792491 61.19987197 19.13648857 63 29 C64.23494116 39.23019155 61.88482598 49.58459048 55.75 57.9375 C49.27641401 65.42816745 43.85955063 68.04213481 34 71 C22.78 71 11.56 71 0 71 C0 47.57 0 24.14 0 0 Z " fill="#030303" transform="translate(499,1359)"/>
<path d="M0 0 C15 0 15 0 18.046875 2.6484375 C18.96118164 4.42163086 18.96118164 4.42163086 19.75 6.375 C20.42756421 7.73998693 21.10873095 9.1031899 21.79296875 10.46484375 C22.13763184 11.19429199 22.48229492 11.92374023 22.83740234 12.67529297 C24.96405116 16.92769743 27.54428652 20.90916298 30.0625 24.9375 C31.01322846 26.48735616 31.96257914 28.03805886 32.91015625 29.58984375 C33.59980469 30.71519531 34.28945313 31.84054687 35 33 C38.38552796 28.18538202 41.41875501 23.32228425 44.12109375 18.08984375 C44.66572266 17.08115234 45.21035156 16.07246094 45.77148438 15.03320312 C46.88916477 12.95638785 47.96457398 10.8563057 48.99804688 8.73632812 C50.68359375 5.71484375 50.68359375 5.71484375 55 1 C59.95 1 64.9 1 70 1 C70 24.43 70 47.86 70 72 C65.38 72 60.76 72 56 72 C55.67 57.48 55.34 42.96 55 28 C49.86691166 36.70403779 49.86691166 36.70403779 44.73901367 45.41113281 C44.09681885 46.49749023 43.45462402 47.58384766 42.79296875 48.703125 C41.81106567 50.36843262 41.81106567 50.36843262 40.80932617 52.06738281 C37.86123836 56.84574346 37.86123836 56.84574346 36 59 C35.34 59 34.68 59 34 59 C32.5693963 56.88184323 31.27221263 54.77436441 30 52.5625 C29.66355469 51.98951172 29.32710937 51.41652344 28.98046875 50.82617188 C27.64786889 48.55415974 26.32461267 46.27667802 25 44 C21.7 38.39 18.4 32.78 15 27 C14.67 41.85 14.34 56.7 14 72 C9.38 72 4.76 72 0 72 C0 48.24 0 24.48 0 0 Z " fill="#040404" transform="translate(714,1358)"/>
<path d="M0 0 C37.8272751 0 37.8272751 0 46.26953125 8.0546875 C51.01459776 13.38887062 52.64817388 18.42135432 52.3203125 25.546875 C51.10435615 34.85932122 46.25017371 40.32595101 39 46 C39.49628906 46.79921875 39.99257813 47.5984375 40.50390625 48.421875 C54 70.24098672 54 70.24098672 54 72 C48.72 72 43.44 72 38 72 C36.2047615 68.77277359 34.41370354 65.54334576 32.625 62.3125 C32.11710938 61.40048828 31.60921875 60.48847656 31.0859375 59.54882812 C30.59609375 58.66259766 30.10625 57.77636719 29.6015625 56.86328125 C28.92601318 55.64572144 28.92601318 55.64572144 28.23681641 54.40356445 C27.00444456 52.00863732 26.00030453 49.50076132 25 47 C21.37 47 17.74 47 14 47 C14 55.25 14 63.5 14 72 C9.38 72 4.76 72 0 72 C0 48.24 0 24.48 0 0 Z " fill="#060606" transform="translate(572,1358)"/>
<path d="M0 0 C37.8272751 0 37.8272751 0 46.26953125 8.0546875 C50.96315384 13.33103976 52.69480999 18.41512531 52.390625 25.4765625 C51.42654191 31.70453926 48.45481374 37.54518626 44 42 C42.35059167 42.70828976 40.68494545 43.3809838 39 44 C43.07926536 52.50271874 47.43762993 60.5935393 52.49609375 68.55078125 C54 71 54 71 54 72 C48.72 72 43.44 72 38 72 C37.154375 70.4325 36.30875 68.865 35.4375 67.25 C32.52855905 61.89727095 29.45743607 56.65534272 26.3203125 51.43359375 C25 49 25 49 25 47 C21.37 47 17.74 47 14 47 C14 55.25 14 63.5 14 72 C9.38 72 4.76 72 0 72 C0 48.24 0 24.48 0 0 Z " fill="#070707" transform="translate(1156,1358)"/>
<path d="M0 0 C3.96 0 7.92 0 12 0 C12.53496094 0.98097656 13.06992187 1.96195313 13.62109375 2.97265625 C16.12910105 7.35809245 19.0661386 11.37640513 22.0625 15.4375 C28.23978357 23.83267047 34.08774066 32.40035005 40 41 C40.33 27.47 40.66 13.94 41 0 C45.95 0 50.9 0 56 0 C56 23.76 56 47.52 56 72 C45 72 45 72 42.08203125 69.52734375 C41.28761162 68.3555537 40.53307605 67.15609125 39.8125 65.9375 C38.91442424 64.57658414 38.01595957 63.21592486 37.1171875 61.85546875 C36.6334668 61.09411621 36.14974609 60.33276367 35.65136719 59.54833984 C33.08052007 55.58108641 30.34357833 51.73286833 27.62573242 47.86547852 C25.50818881 44.85064262 23.40494534 41.82647589 21.30859375 38.796875 C20.71876709 37.94448242 20.12894043 37.09208984 19.52124023 36.21386719 C18.33354699 34.4854123 17.16330716 32.74496074 16 31 C15.67 44.53 15.34 58.06 15 72 C10.05 72 5.1 72 0 72 C0 48.24 0 24.48 0 0 Z " fill="#0C0C0C" transform="translate(430,1358)"/>
<path d="M0 0 C11 0 11 0 14.27734375 3.12109375 C15.20215694 4.53571106 16.08730643 5.9768178 16.9375 7.4375 C17.93640737 8.99679424 18.9364416 10.55536708 19.9375 12.11328125 C20.43765625 12.91975098 20.9378125 13.7262207 21.453125 14.55712891 C23.96289545 18.52063319 26.70582626 22.31272013 29.4375 26.125 C30.39551102 27.4810792 31.35258393 28.83782175 32.30859375 30.1953125 C34.85691012 33.80820637 37.43004999 37.40206998 40 41 C40.33 27.47 40.66 13.94 41 0 C45.62 0 50.24 0 55 0 C56 1 56 1 56.12025452 3.81568909 C56.11803391 5.07477585 56.11581329 6.33386261 56.11352539 7.63110352 C56.11367142 8.32375305 56.11381744 9.01640259 56.1139679 9.7300415 C56.11326874 12.02969446 56.10547628 14.32926737 56.09765625 16.62890625 C56.09579208 18.21931412 56.09436817 19.80972257 56.09336853 21.40013123 C56.08954329 25.5939593 56.07971295 29.78775295 56.06866455 33.98156738 C56.05845057 38.25788914 56.05387094 42.53421644 56.04882812 46.81054688 C56.03809069 55.20704708 56.02101419 63.60351926 56 72 C54.24701023 72.10644543 52.49214845 72.18235174 50.73706055 72.24536133 C49.76012741 72.29090652 48.78319427 72.33645172 47.7766571 72.38337708 C44.28147936 71.90079281 43.34067235 70.81023665 41.20703125 68.07421875 C40.10808477 66.4021078 39.03897802 64.71001843 38 63 C36.94779834 61.48122869 35.88929943 59.96679871 34.82421875 58.45703125 C33.77565039 56.91088139 32.73007581 55.36269699 31.6875 53.8125 C26.26262349 45.76871758 20.64389139 37.90144795 15 30 C14.67 43.86 14.34 57.72 14 72 C9.38 72 4.76 72 0 72 C0 48.24 0 24.48 0 0 Z " fill="#090909" transform="translate(976,1358)"/>
<path d="M0 0 C5.94 0 11.88 0 18 0 C18.54938232 1.59279785 19.09876465 3.1855957 19.66479492 4.82666016 C21.50017596 10.14730898 23.33626587 15.46771284 25.17281628 20.78795815 C26.28398188 24.00694002 27.39488129 27.2260132 28.50512695 30.4453125 C29.78786292 34.16430839 31.07157916 37.88296473 32.35546875 41.6015625 C32.94016182 43.2977623 32.94016182 43.2977623 33.53666687 45.02822876 C34.10669182 46.67835464 34.10669182 46.67835464 34.68823242 48.36181641 C35.06023773 49.4387677 35.43224304 50.51571899 35.81552124 51.62530518 C36.66232592 54.03793382 37.52238075 56.44221285 38.40151978 58.84295654 C38.74902141 59.796848 38.74902141 59.796848 39.10354328 60.77000999 C39.75498893 62.55328726 40.41210068 64.33449167 41.0695343 66.11557007 C42 69 42 69 42 72 C37.05 72 32.1 72 27 72 C23 61.25 23 61.25 23 59 C13.43 59 3.86 59 -6 59 C-6.66 61.97 -7.32 64.94 -8 68 C-8.33 69.32 -8.66 70.64 -9 72 C-14.28 72 -19.56 72 -25 72 C-22.76202695 63.09538892 -19.78220344 54.58461154 -16.61636353 45.98022461 C-15.14968449 41.99303164 -13.69681994 38.00083329 -12.24609375 34.0078125 C-11.82036324 32.83638702 -11.82036324 32.83638702 -11.3860321 31.64129639 C-8.78925822 24.46907814 -6.34188033 17.25180503 -4.00488281 9.99072266 C-2.8682639 6.47897778 -1.65748183 3.31496367 0 0 Z " fill="#060606" transform="translate(381,1358)"/>
<path d="M0 0 C4.62 0 9.24 0 14 0 C14.01458252 1.51352051 14.02916504 3.02704102 14.04418945 4.58642578 C14.10223807 10.21117572 14.17947146 15.8355281 14.26245117 21.45996094 C14.29566947 23.8925124 14.32371099 26.32514037 14.34643555 28.7578125 C14.38003758 32.25814358 14.43235834 35.75777555 14.48828125 39.2578125 C14.49467117 40.34240753 14.5010611 41.42700256 14.50764465 42.54446411 C14.6145325 48.05570027 14.78084076 52.29435389 18 57 C20.92048739 58.46024369 23.56056084 58.28646553 26.8125 58.375 C28.64748047 58.44847656 28.64748047 58.44847656 30.51953125 58.5234375 C34.04064086 58.24522608 34.04064086 58.24522608 36.67333984 56.22241211 C40.19620977 51.34325575 39.72742678 46.7965569 39.70703125 40.91796875 C39.72215256 39.74865311 39.73727386 38.57933746 39.75285339 37.37458801 C39.79578929 33.6453634 39.80457471 29.91694735 39.8125 26.1875 C39.83563951 23.65687946 39.86100369 21.12627821 39.88867188 18.59570312 C39.95158341 12.39706374 39.9838726 6.19893054 40 0 C44.95 0 49.9 0 55 0 C55.09932908 7.36486944 55.17168728 14.72934363 55.21972656 22.09472656 C55.23976603 24.59707436 55.26700522 27.09937578 55.30175781 29.6015625 C55.3506124 33.21105437 55.37304645 36.81992379 55.390625 40.4296875 C55.41127014 41.53738495 55.43191528 42.6450824 55.45318604 43.78634644 C55.45548336 51.84911345 54.14225732 58.86190953 49.17578125 65.40234375 C40.85439096 72.25833198 33.42598438 73.64456687 22.66796875 73.41796875 C15.94258934 72.65160496 11.31348035 69.86084289 6.125 65.6875 C0.00460231 57.94699704 -0.56154787 51.80587199 -0.390625 42.1875 C-0.38496521 40.97803711 -0.37930542 39.76857422 -0.37347412 38.52246094 C-0.35118613 34.6812283 -0.30100094 30.84094801 -0.25 27 C-0.22992534 24.38673228 -0.21167627 21.77344985 -0.1953125 19.16015625 C-0.1513457 12.77307375 -0.08236813 6.38669803 0 0 Z " fill="#090909" transform="translate(1217,1358)"/>
<path d="M0 0 C5.19082968 2.77226631 8.19123076 6.03268063 11.12109375 11.1328125 C11.12109375 12.1228125 11.12109375 13.1128125 11.12109375 14.1328125 C7.49109375 16.1128125 3.86109375 18.0928125 0.12109375 20.1328125 C-1.37630208 18.34244792 -2.87369792 16.55208333 -4.37109375 14.76171875 C-6.37028978 12.60196553 -7.43294766 12.16910334 -10.375 11.9296875 C-11.83099609 11.90648437 -11.83099609 11.90648437 -13.31640625 11.8828125 C-14.28449219 11.85703125 -15.25257812 11.83125 -16.25 11.8046875 C-18.8953581 11.91644869 -18.8953581 11.91644869 -20.68359375 13.46875 C-22.08691503 15.20084184 -22.08691503 15.20084184 -22.56640625 18.0078125 C-22.14689478 21.41504971 -22.14689478 21.41504971 -18.94140625 23.6328125 C-13.97869519 26.40766169 -8.54557917 28.12376373 -3.13500977 29.81445312 C2.66813619 31.69906542 7.69350018 34.24890435 11.6796875 38.984375 C14.4559275 44.58621038 15.28003952 49.95176838 14.12109375 56.1328125 C11.04223316 63.04970479 6.46871368 67.40507337 -0.58203125 70.20703125 C-9.29223091 72.65290485 -19.64671937 72.255976 -27.83203125 68.328125 C-33.62439355 64.94556228 -36.92885002 61.14638866 -39.87890625 55.1328125 C-39.87890625 54.4728125 -39.87890625 53.8128125 -39.87890625 53.1328125 C-37.796875 51.58984375 -37.796875 51.58984375 -35.06640625 49.9453125 C-33.72642578 49.11966797 -33.72642578 49.11966797 -32.359375 48.27734375 C-29.87890625 47.1328125 -29.87890625 47.1328125 -26.87890625 48.1328125 C-26.23953125 49.1021875 -25.60015625 50.0715625 -24.94140625 51.0703125 C-22.8267629 54.21023747 -22.28586679 54.90492317 -18.87890625 56.1328125 C-15.50980897 56.52488543 -15.50980897 56.52488543 -11.87890625 56.5078125 C-10.66203125 56.53617188 -9.44515625 56.56453125 -8.19140625 56.59375 C-4.81698103 56.4054029 -4.81698103 56.4054029 -2.48046875 54.265625 C-0.72882559 52.22063012 -0.72882559 52.22063012 -0.25390625 49.6328125 C-0.6717288 46.86766734 -0.6717288 46.86766734 -3.4609375 45.12890625 C-7.00827415 43.05726165 -10.26351252 41.8740885 -14.19140625 40.6953125 C-23.43865253 37.77501013 -30.81906837 34.93378179 -35.94921875 26.33984375 C-38.0814447 21.27804686 -37.83667896 14.9317405 -36.07421875 9.78125 C-28.63835982 -3.5007325 -13.06714424 -5.9795252 0 0 Z " fill="#060606" transform="translate(1079.87890625,1359.8671875)"/>
<path d="M0 0 C3.12400318 2.49033113 5.9508029 5.15475933 8.6875 8.0625 C7.22153275 12.0054464 5.31441725 13.08084588 1.5625 14.8125 C0.65242187 15.24046875 -0.25765625 15.6684375 -1.1953125 16.109375 C-1.89398437 16.42390625 -2.59265625 16.7384375 -3.3125 17.0625 C-3.828125 16.32 -4.34375 15.5775 -4.875 14.8125 C-8.67937284 10.52038705 -11.70494379 8.36183681 -17.375 7.7109375 C-24.58371726 7.5273822 -31.54101176 7.56944378 -37.05859375 12.6796875 C-42.04561783 18.25271681 -43.65958629 22.39768966 -43.625 29.9375 C-43.64111328 30.63230469 -43.65722656 31.32710937 -43.67382812 32.04296875 C-43.67963436 38.20919331 -41.97130227 42.08115285 -38.0625 46.75 C-31.75959914 52.05016663 -26.48416436 52.5607205 -18.40625 52.34765625 C-11.69362975 51.72894252 -7.83095688 49.12864863 -3.3125 44.0625 C0.99514815 45.62891751 4.74921464 47.74586156 8.6875 50.0625 C5.6630598 57.21117685 0.48540378 61.66994915 -6.3125 65.0625 C-14.52093911 68.14066467 -26.43425013 68.80073805 -34.8125 65.875 C-35.9675 65.276875 -37.1225 64.67875 -38.3125 64.0625 C-38.97378906 63.7221875 -39.63507812 63.381875 -40.31640625 63.03125 C-48.1300517 58.64256109 -54.46847559 51.50478928 -57.35546875 42.984375 C-59.96301748 33.54045497 -59.89733278 22.02870279 -55.625 13.1875 C-53.28935404 9.25464416 -50.86369818 5.9922385 -47.3125 3.0625 C-46.384375 2.216875 -45.45625 1.37125 -44.5 0.5 C-31.43636577 -10.17312384 -13.41492434 -9.66773877 0 0 Z " fill="#060606" transform="translate(878.3125,1363.9375)"/>
<path d="M0 0 C5.59572174 3.56904223 9.79934205 7.13892254 13 13 C11.42652824 14.035969 9.84078454 15.05331732 8.25 16.0625 C7.36828125 16.63097656 6.4865625 17.19945312 5.578125 17.78515625 C3 19 3 19 0.859375 18.8359375 C-2.1841659 17.46762289 -4.47701781 15.15504729 -7 13 C-12.57091094 9.46368262 -20.19706842 10.2793808 -26.453125 11.46484375 C-32.78065038 13.50559144 -35.60359756 17.59240959 -38.8125 23.125 C-41.09586929 29.10399588 -41.08886453 35.84142867 -39.015625 41.85546875 C-36.5618251 46.98269878 -34.07776987 51.48052443 -28.83203125 54.0703125 C-22.09128312 56.2831374 -12.74258023 56.32097836 -6.25 53.25 C-3.44788706 51.31007566 -1.67589835 49.93282211 0 47 C3.21852831 47.63065757 5.50801069 48.78020695 8.25 50.5625 C8.95640625 51.01753906 9.6628125 51.47257812 10.390625 51.94140625 C11.18726563 52.46541016 11.18726563 52.46541016 12 53 C11.10580645 58.48765354 7.19864762 61.66436967 3 65 C-0.2388632 66.69931388 -3.50120996 67.94679279 -7 69 C-7.60328125 69.18949219 -8.2065625 69.37898438 -8.828125 69.57421875 C-20.31980387 71.82708385 -30.93119709 70.05147745 -40.859375 63.8359375 C-49.14465162 57.55791862 -52.95717122 48.96023297 -55 39 C-56.22468128 27.89530571 -53.82339146 17.89444795 -47 9 C-35.06564021 -5.26870889 -16.64398487 -7.55397038 0 0 Z " fill="#060606" transform="translate(1336,1361)"/>
<path d="M0 0 C1.81952641 0.87018594 3.60485887 1.81382088 5.359375 2.80859375 C6.38554932 3.38488525 7.41172363 3.96117676 8.46899414 4.55493164 C10.68471342 5.8262622 12.89737734 7.10293046 15.10717773 8.38452148 C20.13817456 11.29490417 25.07919539 14.12252485 30.42578125 16.4140625 C39.44528468 20.46656851 39.44528468 20.46656851 42 24 C43.92561445 30.84918342 43.05844952 38.05925323 42 45 C37.88339382 43.74315339 34.35477858 42.21817614 30.65625 40.0234375 C29.66351074 39.43820312 28.67077148 38.85296875 27.64794922 38.25 C26.60912598 37.63125 25.57030273 37.0125 24.5 36.375 C23.43152832 35.74851562 22.36305664 35.12203125 21.26220703 34.4765625 C16.6528817 31.77283463 12.05874406 29.05291296 7.5234375 26.2265625 C6.89244141 25.84193848 6.26144531 25.45731445 5.61132812 25.06103516 C3.99995535 24.0763577 2.40170771 23.07028884 0.8046875 22.0625 C-2.93823257 20.64456928 -4.32114297 21.53380907 -8 23 C-10.14668667 24.11096288 -12.26547575 25.2768618 -14.359375 26.484375 C-14.94865784 26.82245178 -15.53794067 27.16052856 -16.14508057 27.5088501 C-18.01634265 28.58419355 -19.88313535 29.6670443 -21.75 30.75 C-22.98670539 31.46141364 -24.22368259 32.17235498 -25.4609375 32.8828125 C-31.73492682 36.49341424 -37.96910467 40.15639257 -44.11816406 43.97753906 C-46 45 -46 45 -48 45 C-50.64300272 27.66859933 -50.64300272 27.66859933 -46.75048828 22.265625 C-42.96240092 19.09006486 -38.37880226 17.30402895 -33.87792969 15.35791016 C-30.54369609 13.7846995 -27.4067045 11.95125482 -24.2578125 10.04296875 C-23.67963776 9.69480103 -23.10146301 9.3466333 -22.50576782 8.98791504 C-20.17511603 7.5829389 -17.84609434 6.1753684 -15.52154541 4.76031494 C-13.88240681 3.76973303 -12.23044721 2.80046254 -10.578125 1.83203125 C-9.14581543 0.97702026 -9.14581543 0.97702026 -7.68457031 0.10473633 C-4.48356849 -1.21251843 -3.2427831 -1.11192052 0 0 Z " fill="#060606" transform="translate(787,904)"/>
<path d="M0 0 C5.40887575 3.5132881 8.96435328 7.67877708 11 13.875 C11.92448275 23.35995285 11.12425284 30.05443885 5.25 37.625 C-0.04566972 43.33098796 -4.78630938 44.08876896 -12.375 44.4375 C-19.47374004 44.29004843 -23.93595151 42.88202092 -29 37.875 C-34.74751711 30.65376055 -35.9520961 23.92579005 -35 14.875 C-32.94205185 8.08933312 -28.53506702 3.20129041 -22.5 -0.4375 C-15.41593359 -3.70500889 -6.91702556 -3.56821519 0 0 Z " fill="#FBFBFB" transform="translate(941,1373.125)"/>
<path d="M0 0 C6.02328119 2.71458955 9.88314269 6.42137634 13.13671875 12.16015625 C15.38615654 18.90846963 15.23692595 27.81469053 12.31640625 34.37890625 C8.91464543 39.5153398 4.00560483 43.339951 -1.86328125 45.16015625 C-8.89732593 45.98769092 -15.88132786 46.45650599 -22.05078125 42.53515625 C-27.47260562 38.20381159 -31.29156931 32.54771296 -32.19921875 25.58203125 C-32.3107785 17.9513442 -31.30045345 11.84384695 -25.95703125 6.1171875 C-18.13765833 -0.95817792 -10.48267091 -3.07472612 0 0 Z " fill="#FBFBFB" transform="translate(675.86328125,1371.83984375)"/>
<path d="M0 0 C5.27180999 1.5003107 9.58075378 3.90657386 14.25 6.6875 C15.93980843 7.68019108 17.62993043 8.67234853 19.3203125 9.6640625 C20.22942383 10.1993457 21.13853516 10.73462891 22.07519531 11.28613281 C27.4066361 14.41023251 32.76864375 17.48138947 38.125 20.5625 C48.11557177 26.32093441 58.08226735 32.11698131 68 38 C69.0621875 38.6290625 70.124375 39.258125 71.21875 39.90625 C77.86284722 43.86284722 77.86284722 43.86284722 79 45 C79.08685603 46.56172745 79.10702219 48.12729344 79.09765625 49.69140625 C79.09282227 51.10776367 79.09282227 51.10776367 79.08789062 52.55273438 C79.07532227 54.04256836 79.07532227 54.04256836 79.0625 55.5625 C79.05798828 56.55958984 79.05347656 57.55667969 79.04882812 58.58398438 C79.03700007 61.05604849 79.02051849 63.52799518 79 66 C78.14019531 65.50371094 77.28039062 65.00742188 76.39453125 64.49609375 C70.57384717 61.14730949 64.74439814 57.83690984 58.8125 54.6875 C51.81755935 50.94897066 44.97508905 46.96222441 38.12109375 42.97265625 C33.68914188 40.39442462 29.24290437 37.84227029 24.78588867 35.30761719 C22.98182745 34.27580091 21.18367323 33.23358182 19.3918457 32.18066406 C15.66322323 30.00056169 12.06422402 27.92950486 8.0078125 26.42578125 C2.37936704 24.11480776 2.37936704 24.11480776 0 21 C-1.40380319 14.10048731 -0.72860919 6.95074481 0 0 Z " fill="#050505" transform="translate(841,995)"/>
<path d="M0 0 C0.92584634 6.94242315 1.7220271 14.13258906 0 21 C-3.56152 25.13861815 -7.57588305 26.81044057 -12.54394531 28.90087891 C-17.19295272 30.98137904 -21.53237033 33.64092479 -25.9375 36.1875 C-27.91304292 37.30128954 -29.88962597 38.413236 -31.8671875 39.5234375 C-38.1331243 43.06173054 -44.35167034 46.67855076 -50.5625 50.3125 C-51.56547119 50.89878174 -52.56844238 51.48506348 -53.60180664 52.08911133 C-57.19401565 54.18921327 -60.78602058 56.28966372 -64.37744141 58.39111328 C-66.37403574 59.55695212 -68.37377789 60.71712907 -70.375 61.875 C-71.96441406 62.79925781 -71.96441406 62.79925781 -73.5859375 63.7421875 C-76 65 -76 65 -78 65 C-78.2631068 61.79324529 -78.4216804 58.58926334 -78.5625 55.375 C-78.63791016 54.47136719 -78.71332031 53.56773438 -78.79101562 52.63671875 C-78.88243658 49.85345846 -78.7974718 47.67233748 -78 45 C-75.40546348 42.24564676 -72.33856216 40.72145089 -69 39 C-67.24577389 37.95497843 -65.49588496 36.90264804 -63.75 35.84375 C-61.83533876 34.72572519 -59.91857383 33.61129724 -58 32.5 C-56.96472168 31.89760498 -55.92944336 31.29520996 -54.86279297 30.67456055 C-46.29329413 25.70652026 -37.64909774 20.87786048 -28.98803711 16.07177734 C-21.63650513 11.97236671 -14.42055378 7.69238797 -7.30322266 3.19848633 C-2.19999243 0 -2.19999243 0 0 0 Z " fill="#040404" transform="translate(726,995)"/>
<path d="M0 0 C17.49 0 34.98 0 53 0 C53 4.29 53 8.58 53 13 C46.73 13 40.46 13 34 13 C34 32.14 34 51.28 34 71 C29.05 71 24.1 71 19 71 C19 51.86 19 32.72 19 13 C12.73 13 6.46 13 0 13 C0 8.71 0 4.42 0 0 Z " fill="#090909" transform="translate(1095,1359)"/>
<path d="M0 0 C17.16 0 34.32 0 52 0 C52 4.29 52 8.58 52 13 C45.73 13 39.46 13 33 13 C33 32.14 33 51.28 33 71 C28.38 71 23.76 71 19 71 C19 51.86 19 32.72 19 13 C12.73 13 6.46 13 0 13 C0 8.71 0 4.42 0 0 Z " fill="#000000" transform="translate(1352,1359)"/>
<path d="M0 0 C23.74060694 0 23.74060694 0 29.64453125 5.4765625 C34.87471608 11.35486822 35.60348966 17.14402891 35.30859375 24.8828125 C34.54465199 32.59959133 32.10649886 36.51138821 26.23046875 41.5546875 C17.8070537 47.01294243 10.48671274 45 0 45 C0 30.15 0 15.3 0 0 Z " fill="#FAFAFA" transform="translate(513,1372)"/>
<path d="M0 0 C4.95 0 9.9 0 15 0 C15 23.76 15 47.52 15 72 C10.05 72 5.1 72 0 72 C0 48.24 0 24.48 0 0 Z " fill="#111111" transform="translate(1439,1358)"/>
<path d="M0 0 C4.62 0 9.24 0 14 0 C15 1 15 1 15.12025452 3.81568909 C15.1169236 5.70431923 15.1169236 5.70431923 15.11352539 7.63110352 C15.11367142 8.32375305 15.11381744 9.01640259 15.1139679 9.7300415 C15.11326874 12.02969446 15.10547628 14.32926737 15.09765625 16.62890625 C15.09579208 18.21931412 15.09436817 19.80972257 15.09336853 21.40013123 C15.08954329 25.5939593 15.07971295 29.78775295 15.06866455 33.98156738 C15.05845057 38.25788914 15.05387094 42.53421644 15.04882812 46.81054688 C15.03809068 55.20704884 15.02049384 63.60351618 15 72 C10.05 72 5.1 72 0 72 C0 48.24 0 24.48 0 0 Z " fill="#101010" transform="translate(1412,1358)"/>
<path d="M0 0 C2.866875 -0.0825 5.73375 -0.165 8.6875 -0.25 C9.58170654 -0.28641602 10.47591309 -0.32283203 11.3972168 -0.36035156 C15.44692845 -0.41666694 17.50103852 -0.31241573 21.01953125 1.890625 C23.59919138 4.63819201 23.96222859 5.49952886 24.25 9.3125 C23.93281521 13.9909757 22.63675436 16.29368358 19.4375 19.62890625 C15.77456912 21.68930487 12.36938474 21.31969154 8.25 21.1875 C5.5275 21.125625 2.805 21.06375 0 21 C0 14.07 0 7.14 0 0 Z " fill="#F9F9F9" transform="translate(586,1372)"/>
<path d="M0 0 C2.866875 -0.103125 5.73375 -0.20625 8.6875 -0.3125 C10.02880981 -0.38078003 10.02880981 -0.38078003 11.3972168 -0.45043945 C15.68572324 -0.52498454 17.48080303 -0.39141534 21.015625 2.2734375 C23.65802078 5.90413092 24.46264464 8.5394073 24 13 C22.03190926 16.79560358 20.5566917 18.6288722 17 21 C15.09887695 21.22705078 15.09887695 21.22705078 12.98828125 21.1953125 C12.30548096 21.19031738 11.62268066 21.18532227 10.91918945 21.18017578 C10.05898193 21.16196777 9.19877441 21.14375977 8.3125 21.125 C4.1978125 21.063125 4.1978125 21.063125 0 21 C0 14.07 0 7.14 0 0 Z " fill="#F9F9F9" transform="translate(1170,1372)"/>
<path d="M0 0 C3.546166 3.546166 4.51930553 8.69976238 6.125 13.375 C6.68380859 14.95667969 6.68380859 14.95667969 7.25390625 16.5703125 C7.60582031 17.58609375 7.95773437 18.601875 8.3203125 19.6484375 C8.64273926 20.57833496 8.96516602 21.50823242 9.29736328 22.46630859 C10 25 10 25 10 29 C3.73 29 -2.54 29 -9 29 C-6.47168425 19.16766097 -3.26541049 9.60601339 0 0 Z " fill="#F4F4F4" transform="translate(389,1375)"/>
<path d="M0 0 C4.29 0 8.58 0 13 0 C12.01 6.93 11.02 13.86 10 21 C6.7 21 3.4 21 0 21 C0 14.07 0 7.14 0 0 Z " fill="#0C0C0C" transform="translate(1372,1436)"/>
<path d="M0 0 C4.875 4.75 4.875 4.75 6 7 C5.34 7 4.68 7 4 7 C3.34 8.32 2.68 9.64 2 11 C1.34 10.67 0.68 10.34 0 10 C0 6.7 0 3.4 0 0 Z " fill="#F5F5F5" transform="translate(991,1389)"/>
<path d="M0 0 C-0.1875 3.3125 -0.1875 3.3125 -1 7 C-3.5625 8.9375 -3.5625 8.9375 -6 10 C-6.33663062 6.29706315 -6.47736015 4.60465619 -4.125 1.625 C-2 0 -2 0 0 0 Z " fill="#EAEAEA" transform="translate(1063,1371)"/>
<path d="M0 0 C0.33 0.66 0.66 1.32 1 2 C0.50628906 2.38671875 0.01257812 2.7734375 -0.49609375 3.171875 C-1.13675781 3.69265625 -1.77742188 4.2134375 -2.4375 4.75 C-3.07558594 5.26046875 -3.71367188 5.7709375 -4.37109375 6.296875 C-6.21442189 8.22419171 -6.40787222 9.46230949 -7 12 C-9.5625 13.25 -9.5625 13.25 -12 14 C-10.66445565 10.02119078 -9.01381696 7.65301487 -6 4.75 C-4.948125 3.72132812 -4.948125 3.72132812 -3.875 2.671875 C-2 1 -2 1 0 0 Z " fill="#1C1C1C" transform="translate(1298,1362)"/>
<path d="M0 0 C-4.10457614 2.98514628 -6.97745369 3.2954439 -12 3 C-8.61613364 -0.38386636 -4.56431325 -1.75550509 0 0 Z " fill="#3E3E3E" transform="translate(591,1189)"/>
<path d="M0 0 C2.35953094 2.35953094 2.49141413 3.77895617 3 7 C2.01 7.66 1.02 8.32 0 9 C-0.66 8.67 -1.32 8.34 -2 8 C-1.34 5.36 -0.68 2.72 0 0 Z " fill="#E0E0E0" transform="translate(389,1375)"/>
<path d="M0 0 C0.99 0.33 1.98 0.66 3 1 C3 2.65 3 4.3 3 6 C2.01 6 1.02 6 0 6 C-0.66 4.68 -1.32 3.36 -2 2 C-1.34 1.34 -0.68 0.68 0 0 Z " fill="#F4F4F4" transform="translate(1300,1404)"/>
<path d="M0 0 C1.9375 0.6875 1.9375 0.6875 4 2 C4.75 4.625 4.75 4.625 5 7 C4.01 6.34 3.02 5.68 2 5 C1.34 5 0.68 5 0 5 C0 3.35 0 1.7 0 0 Z " fill="#2E2E2E" transform="translate(900,1063)"/>
<path d="M0 0 C1.65 0 3.3 0 5 0 C5 0.99 5 1.98 5 3 C3.35 3.66 1.7 4.32 0 5 C0 3.35 0 1.7 0 0 Z " fill="#F0F0F0" transform="translate(649,1034)"/>
<path d="M0 0 C0.66 0.33 1.32 0.66 2 1 C1.01 2.98 0.02 4.96 -1 7 C-1.66 6.67 -2.32 6.34 -3 6 C-3 4.68 -3 3.36 -3 2 C-2.01 1.34 -1.02 0.68 0 0 Z " fill="#101010" transform="translate(679,1056)"/>
<path d="M0 0 C1.32 0.66 2.64 1.32 4 2 C2.35 3.32 0.7 4.64 -1 6 C-1 5.34 -1 4.68 -1 4 C-1.66 3.67 -2.32 3.34 -3 3 C-2.01 2.01 -1.02 1.02 0 0 Z " fill="#161616" transform="translate(875,1408)"/>
<path d="M0 0 C0.66 0 1.32 0 2 0 C1.65120368 3.25543229 0.97866739 4.01873107 -1.5625 6.25 C-2.366875 6.8275 -3.17125 7.405 -4 8 C-2.87548273 5.0280615 -1.77706209 2.66559313 0 0 Z " fill="#161616" transform="translate(769,1359)"/>
</svg>
